{
  "accessors": [
    {
      "bufferView": 1,
      "componentType": 5126,
      "count": 2472,
      "max": [
        0.9819073677062988,
        0.9819073677062988,
        0.22554486989974976
      ],
      "min": [
        -0.9819073677062988,
        -0.9819073677062988,
        -0.4652276039123535
      ],
      "type": "VEC3"
    },
    {
      "bufferView": 1,
      "byteOffset": 29664,
      "componentType": 5126,
      "count": 2472,
      "max": [
        0.9990536570549011,
        0.9990536570549011,
        0.9990119338035583
      ],
      "min": [
        -0.9990536570549011,
        -0.9990536570549011,
        -0.9998392462730408
      ],
      "type": "VEC3"
    },
    {
      "bufferView": 0,
      "componentType": 5125,
      "count": 11904,
      "type": "SCALAR"
    },
    {
      "bufferView": 1,
      "byteOffset": 59328,
      "componentType": 5126,
      "count": 1017,
      "max": [
        0.9884788393974304,
        0.9884787797927856,
        0.16070574522018433
      ],
      "min": [
        -0.9884787797927856,
        -0.9884788393974304,
        -0.4898647964000702
      ],
      "type": "VEC3"
    },
    {
      "bufferView": 1,
      "byteOffset": 71532,
      "componentType": 5126,
      "count": 1017,
      "max": [
        0.9969658255577087,
        0.9969658255577087,
        0.8647589087486267
      ],
      "min": [
        -0.9969658255577087,
        -0.996965765953064,
        -1.0
      ],
      "type": "VEC3"
    },
    {
      "bufferView": 0,
      "byteOffset": 47616,
      "componentType": 5125,
      "count": 4416,
      "type": "SCALAR"
    },
    {
      "bufferView": 1,
      "byteOffset": 83736,
      "componentType": 5126,
      "count": 385,
      "max": [
        0.3574773371219635,
        0.35747748613357544,
        0.28089115023612976
      ],
      "min": [
        -0.35747742652893066,
        -0.3574773371219635,
        0.22554485499858856
      ],
      "type": "VEC3"
    },
    {
      "bufferView": 1,
      "byteOffset": 88356,
      "componentType": 5126,
      "count": 385,
      "max": [
        0.6221424341201782,
        0.6221408843994141,
        1.0
      ],
      "min": [
        -0.6221421360969543,
        -0.622143030166626,
        0.7829031944274902
      ],
      "type": "VEC3"
    },
    {
      "bufferView": 0,
      "byteOffset": 65280,
      "componentType": 5125,
      "count": 2112,
      "type": "SCALAR"
    }
  ],
  "asset": {
    "extras": {
      "author": "Manuel W. (https://sketchfab.com/nebulariser)",
      "license": "CC-BY-4.0 (http://creativecommons.org/licenses/by/4.0/)",
      "source": "https://sketchfab.com/3d-models/billy-meier-ufo-b21083ba65824b4a9b1b4720b705b32e",
      "title": "Billy Meier UFO"
    },
    "generator": "Sketchfab-15.62.0",
    "version": "2.0"
  },
  "bufferViews": [
    {
      "buffer": 0,
      "byteLength": 73728,
      "name": "floatBufferViews",
      "target": 34963
    },
    {
      "buffer": 0,
      "byteLength": 92976,
      "byteOffset": 73728,
      "byteStride": 12,
      "name": "floatBufferViews",
      "target": 34962
    }
  ],
  "buffers": [
    {
      "byteLength": 166704,
      "uri": "scene.bin"
    }
  ],
  "materials": [
    {
      "doubleSided": true,
      "name": "Metal",
      "pbrMetallicRoughness": {
        "baseColorFactor": [
          0.897093,
          0.897093,
          0.897093,
          1.0
        ],
        "roughnessFactor": 0.15
      }
    },
    {
      "doubleSided": true,
      "name": "Black",
      "pbrMetallicRoughness": {
        "baseColorFactor": [
          0.0219793,
          0.0219793,
          0.0219793,
          1.0
        ],
        "roughnessFactor": 0.2
      }
    },
    {
      "doubleSided": true,
      "emissiveFactor": [
        1.0,
        0.0,
        0.0
      ],
      "name": "Red_Light"
    }
  ],
  "meshes": [
    {
      "name": "Object_0",
      "primitives": [
        {
          "attributes": {
            "NORMAL": 1,
            "POSITION": 0
          },
          "indices": 2,
          "material": 0,
          "mode": 4
        }
      ]
    },
    {
      "name": "Object_1",
      "primitives": [
        {
          "attributes": {
            "NORMAL": 4,
            "POSITION": 3
          },
          "indices": 5,
          "material": 1,
          "mode": 4
        }
      ]
    },
    {
      "name": "Object_2",
      "primitives": [
        {
          "attributes": {
            "NORMAL": 7,
            "POSITION": 6
          },
          "indices": 8,
          "material": 2,
          "mode": 4
        }
      ]
    }
  ],
  "nodes": [
    {
      "children": [
        1
      ],
      "matrix": [
        1.0,
        0.0,
        0.0,
        0.0,
        0.0,
        2.220446049250313e-16,
        -1.0,
        0.0,
        0.0,
        1.0,
        2.220446049250313e-16,
        0.0,
        0.0,
        0.0,
        0.0,
        1.0
      ],
      "name": "Sketchfab_model"
    },
    {
      "children": [
        2
      ],
      "name": "root"
    },
    {
      "children": [
        3
      ],
      "matrix": [
        1.0,
        0.0,
        0.0,
        0.0,
        0.0,
        2.220446049250313e-16,
        1.0,
        0.0,
        0.0,
        -1.0,
        2.220446049250313e-16,
        0.0,
        0.0,
        0.0,
        0.0,
        1.0
      ],
      "name": "GLTF_SceneRootNode"
    },
    {
      "children": [
        4,
        5,
        6
      ],
      "matrix": [
        1.0,
        0.0,
        0.0,
        0.0,
        0.0,
        0.0,
        1.0,
        0.0,
        0.0,
        -1.0,
        0.0,
        0.0,
        0.0,
        0.0,
        0.0,
        1.0
      ],
      "name": "BezierCurve_0"
    },
    {
      "mesh": 0,
      "name": "Object_4"
    },
    {
      "mesh": 1,
      "name": "Object_5"
    },
    {
      "mesh": 2,
      "name": "Object_6"
    }
  ],
  "scene": 0,
  "scenes": [
    {
      "name": "Sketchfab_Scene",
      "nodes": [
        0
      ]
    }
  ]
}
